# xmcd
#
# Track frame offsets:
#   150
#   20302
#   40795
#   51520
#   69649
#   86497
#   110151
#   130418
#   154972
#   174102
#   200224
#   214651
#
# Disc length: 3162 seconds
#
# Revision: 0
# Processed by: cddbd v1.4PL0 Copyright (c) Steve Scherf et al.
# Submitted via: uFREEDB 1.6.0
#
DISCID=ad0c580c
DTITLE=Various Artist - Pa's Zo mor Jes en Boes
DYEAR=1900
DGENRE=Blues
TTITLE0=Bob Margolin/Crazy bout you baby
TTITLE1=Chales Musselwhite/Blues overtook me
TTITLE2=Charles Musselwhite/Takin' care of business
TTITLE3=Kenny Neal/Déjà vu
TTITLE4=Mightu Sam McClain/All we need is love
TTITLE5=Mighty Sam McClain/Here I come again
TTITLE6=Monty Alexander/(Do the) Kool step
TTITLE7=Monty Alexander/Monty's groove
TTITLE8=Ronnie Earl/Lunch at R and M's
TTITLE9=Ronnie Earl/Twenty-five days
TTITLE10=Tab Benoit/Fast and free
TTITLE11=Tinsley Ellis/Hell or high water
EXTD=
EXTT0=
EXTT1=
EXTT2=
EXTT3=
EXTT4=
EXTT5=
EXTT6=
EXTT7=
EXTT8=
EXTT9=
EXTT10=
EXTT11=
PLAYORDER=
